<?xml version="1.0" encoding="utf-8"?>
<!-- Generator: Adobe Illustrator 18.0.0, SVG Export Plug-In . SVG Version: 6.00 Build 0)  -->
<!DOCTYPE svg PUBLIC "-//W3C//DTD SVG 1.0//EN" "http://www.w3.org/TR/2001/REC-SVG-20010904/DTD/svg10.dtd">
<svg version="1.0" id="Layer_1" xmlns="http://www.w3.org/2000/svg" xmlns:xlink="http://www.w3.org/1999/xlink" x="0px" y="0px"
	 width="28.3px" height="28.3px" viewBox="0 0 28.3 28.3" enable-background="new 0 0 28.3 28.3" xml:space="preserve">
<g>
	<g>
		<path fill-rule="evenodd" clip-rule="evenodd" fill="#FFFFFF" d="M18,14.2l9.6-9.6c1.1-1.1,1.1-2.8,0-3.8c-1.1-1.1-2.8-1.1-3.8,0
			l-9.6,9.6L4.6,0.8c-1.1-1.1-2.8-1.1-3.8,0c-1.1,1.1-1.1,2.8,0,3.8l9.6,9.6l-9.6,9.6c-1.1,1.1-1.1,2.8,0,3.8c1.1,1.1,2.8,1.1,3.8,0
			l9.6-9.6l9.6,9.6c1.1,1.1,2.8,1.1,3.8,0c1.1-1.1,1.1-2.8,0-3.8L18,14.2z"/>
	</g>
</g>
</svg>
