<?xml version="1.0" encoding="utf-8"?>
<!-- Generator: Adobe Illustrator 18.0.0, SVG Export Plug-In . SVG Version: 6.00 Build 0)  -->
<!DOCTYPE svg PUBLIC "-//W3C//DTD SVG 1.0//EN" "http://www.w3.org/TR/2001/REC-SVG-20010904/DTD/svg10.dtd">
<svg version="1.0" id="Layer_1" xmlns="http://www.w3.org/2000/svg" xmlns:xlink="http://www.w3.org/1999/xlink" x="0px" y="0px"
	 width="50px" height="50px" viewBox="0 0 50 50" enable-background="new 0 0 50 50" xml:space="preserve">
<path fill-rule="evenodd" clip-rule="evenodd" fill="#51B848" d="M43.5,42.5h-38c-2.2,0-4-1.8-4-4v-28c0-2.2,1.8-4,4-4h38
	c2.2,0,4,1.8,4,4v28C47.5,40.7,45.7,42.5,43.5,42.5z M12.5,8.5h-7c-1.1,0-2,0.9-2,2v2h9V8.5z M23.5,8.5h-9v4h9V8.5z M34.5,8.5h-9v4
	h9V8.5z M45.5,10.5c0-1.1-0.9-2-2-2h-7v4h9l0,0V10.5z M45.5,14.5L45.5,14.5h-42v20h42l0,0V14.5z M45.5,36.5L45.5,36.5h-9v4h-2v-4h-9
	v4h-2v-4h-9v4h-2v-4h-9v2c0,1.1,0.9,2,2,2h38c1.1,0,2-0.9,2-2V36.5z M22.1,30.3c-0.2,0.1-0.4,0.2-0.6,0.2c-0.6,0-1-0.4-1-1v-10
	c0-0.6,0.4-1,1-1c0.2,0,0.4,0.1,0.6,0.2l7.8,4.9c0.4,0.1,0.7,0.5,0.7,0.9c0,0.3-0.2,0.6-0.4,0.8L22.1,30.3z"/>
</svg>
