<?xml version="1.0" encoding="utf-8"?>
<!-- Generator: Adobe Illustrator 18.0.0, SVG Export Plug-In . SVG Version: 6.00 Build 0)  -->
<!DOCTYPE svg PUBLIC "-//W3C//DTD SVG 1.1//EN" "http://www.w3.org/Graphics/SVG/1.1/DTD/svg11.dtd">
<svg version="1.1" id="Layer_1" xmlns="http://www.w3.org/2000/svg" xmlns:xlink="http://www.w3.org/1999/xlink" x="0px" y="0px"
	 width="50px" height="50px" viewBox="0 0 50 50" enable-background="new 0 0 50 50" xml:space="preserve">
<g>
	<g>
		<path fill="#51B848" d="M45,21.2c0.3-1.7,0.9-3.2,0.9-5c-0.1-5.1-4.5-7.9-9.6-8.3c-1.7-2.4-4.2-6-8.2-6c-0.7,0-1.5,0.1-2.3,0.4
			c-1.3,0.4-3.5,2.5-4.7,2.6H21c-0.7,0-1.5-0.4-2.1-0.6c-0.8-0.2-1.5-0.2-2.2-0.2c-5.3,0-8.2,4.2-8.6,9.6c-2.9,1.9-7.4,5.1-5.7,10.4
			c0.5,1.7,2.1,3.2,2.8,4.7c-0.2,1.7-0.9,3-0.9,4.7c0,5.2,4.4,7.8,9.6,8.3c1.7,2.7,4.2,6.1,8.1,6.1c0.7,0,1.5-0.1,2.3-0.4
			c1.8-0.6,2.9-2,4.7-2.8c1.7,0.3,3,0.9,4.8,0.9c0.1,0,0.1,0,0.2,0c5.1-0.1,7.7-4.4,8.2-9.5c2.8-2,6.1-3.9,5.9-8.4
			C47.9,24.9,46.1,23.5,45,21.2z M41.6,34c-0.3,0.2-0.6,0.4-0.8,0.6c-0.5,0.3-0.7,0.8-0.8,1.4c-0.2,2.3-1.2,7.5-6.2,7.6h-0.1
			c-0.8,0-1.5-0.2-2.4-0.4c-0.6-0.2-1.3-0.3-2.1-0.4c-0.1,0-0.2,0-0.3,0c-0.3,0-0.5,0.1-0.8,0.2c-1,0.4-1.8,1-2.4,1.5
			c-0.7,0.5-1.3,0.9-2,1.2C23.1,45.9,22.6,46,22,46c-2.8,0-4.8-2.6-6.4-5.1c-0.3-0.5-0.9-0.8-1.5-0.9c-2.3-0.2-7.7-1.2-7.7-6.2
			c0-0.8,0.2-1.5,0.4-2.3c0.2-0.6,0.3-1.3,0.5-2.1c0.1-0.3,0-0.7-0.1-1c-0.4-0.9-0.9-1.6-1.4-2.4s-1-1.5-1.2-2.1
			c-1.1-3.4,1.2-5.7,4.9-8c0.5-0.3,0.8-0.9,0.9-1.5c0.2-3.7,2.1-7.7,6.6-7.7c0.6,0,1.2,0.1,1.8,0.2c0.1,0,0.3,0.1,0.5,0.2
			c0.5,0.2,1.2,0.4,1.9,0.4c0.1,0,0.2,0,0.3,0c1.2-0.1,2.3-0.9,3.5-1.7c0.5-0.4,1.3-0.9,1.6-1c0.6-0.2,1.2-0.3,1.7-0.3
			c2.7,0,4.6,2.4,6.5,5.1c0.3,0.5,0.9,0.8,1.4,0.8c3.7,0.3,7.6,2.1,7.7,6.3c0,0.8-0.2,1.6-0.4,2.5c-0.2,0.6-0.3,1.3-0.4,2
			c-0.1,0.4,0,0.8,0.2,1.1c0.4,0.9,0.9,1.6,1.3,2.3c0.8,1.2,1.4,2.1,1.4,3.6C45.9,30.8,44.2,32.1,41.6,34z M17.7,26.5l-2.1-7.8H13
			v13.1h1.9v-9.5l2.6,9.5h2.1V18.7h-1.8v7.8H17.7z M21,31.8h5.6v-1.9H23V26h2.8v-1.9H23v-3.7h3.6v-1.9H21V31.8z M34.5,29.1l-1-10.4
			h-2l-1,10.3l-1.1-10.3h-2l1.5,13.1h2.8l0.7-7l0.7,7h2.7l1.5-13.1h-1.8L34.5,29.1z"/>
	</g>
</g>
</svg>
