<?xml version="1.0" encoding="utf-8"?>
<!-- Generator: Adobe Illustrator 18.0.0, SVG Export Plug-In . SVG Version: 6.00 Build 0)  -->
<!DOCTYPE svg PUBLIC "-//W3C//DTD SVG 1.0//EN" "http://www.w3.org/TR/2001/REC-SVG-20010904/DTD/svg10.dtd">
<svg version="1.0" id="Layer_1" xmlns="http://www.w3.org/2000/svg" xmlns:xlink="http://www.w3.org/1999/xlink" x="0px" y="0px"
	 width="50px" height="50px" viewBox="0 0 50 50" enable-background="new 0 0 50 50" xml:space="preserve">
<g>
	<g>
		<path fill-rule="evenodd" clip-rule="evenodd" fill="#51B848" d="M33.2,28h-18c-0.6,0-1,0.4-1,1s0.4,1,1,1h18c0.6,0,1-0.4,1-1
			S33.8,28,33.2,28z M33.2,36h-18c-0.6,0-1,0.4-1,1c0,0.6,0.4,1,1,1h18c0.6,0,1-0.4,1-1C34.2,36.4,33.8,36,33.2,36z M33.2,20h-18
			c-0.6,0-1,0.4-1,1s0.4,1,1,1h18c0.6,0,1-0.4,1-1S33.8,20,33.2,20z M13.2,10c0,0.6,0.4,1,1,1h20c0.6,0,1-0.4,1-1c0-0.6-0.4-1-1-1
			c0,0-1.1-0.1-2-1l-2-2c0,0-0.7-1-2-1h-1c0-1.7-1.3-3-3-3c-1.7,0-3,1.3-3,3h-1c-1.2,0-2,1-2,1l-2,2c-0.9,0.9-2,1-2,1
			C13.7,9,13.2,9.4,13.2,10z M24.2,4c0.6,0,1,0.4,1,1h-2C23.2,4.4,23.7,4,24.2,4z M18.9,8c0,0,0.7-1,1.8-1h7.1c1.1,0,1.8,1,1.8,1
			l0.9,1H17.9L18.9,8z M37.2,5h-3c0,0,0,0,0,0c-0.6,0-1,0.4-1,1c0,0.6,0.4,1,1,1h3c1.1,0,2,0.9,2,2v35c0,1.1-0.9,2-2,2h-26
			c-1.1,0-2-0.9-2-2V9c0-1.1,0.9-2,2-2h3c0.6,0,1-0.4,1-1c0-0.6-0.4-1-1-1c0,0,0,0,0,0h-3c-2.2,0-4,1.8-4,4v35c0,2.2,1.8,4,4,4h26
			c2.2,0,4-1.8,4-4V9C41.2,6.8,39.4,5,37.2,5z"/>
	</g>
</g>
</svg>
