<?xml version="1.0" encoding="utf-8"?>
<!-- Generator: Adobe Illustrator 18.0.0, SVG Export Plug-In . SVG Version: 6.00 Build 0)  -->
<!DOCTYPE svg PUBLIC "-//W3C//DTD SVG 1.0//EN" "http://www.w3.org/TR/2001/REC-SVG-20010904/DTD/svg10.dtd">
<svg version="1.0" id="Layer_1" xmlns="http://www.w3.org/2000/svg" xmlns:xlink="http://www.w3.org/1999/xlink" x="0px" y="0px"
	 width="60px" height="50px" viewBox="0 0 60 50" enable-background="new 0 0 60 50" xml:space="preserve">
<g>
	<g>
		<path fill="#51B848" d="M57.4,22.3c-2.3,0.2-3.4,1.3-4.3,2.4c-1.6-0.1-3.2,0.2-4.3,0.6c-0.1-0.4-0.2-0.8-0.3-1.2l-0.6-1.7
			l-0.1-0.2c-2.9-5.2-7.5-8.5-13.6-9.9c0.6-1.1,0.9-2.4,0.9-3.7c0-4.5-3.7-8.1-8.1-8.1c-4.5,0-8.1,3.7-8.1,8.1c0,1.4,0.4,2.8,1,4
			c-0.3,0.1-0.7,0.2-1,0.3c-0.7,0.2-1.3,0.5-1.8,0.5c-0.3,0-0.7,0-1.1-0.1c-0.3-0.1-0.7-0.1-1-0.1c-0.5,0-0.9,0-1.4,0
			c-3.5,0-6.5,0.7-8.7,2.1l-0.6,0.4l0.2,0.7C5,19,6.7,20.5,8.2,21.5c0,0.1-0.1,0.1-0.1,0.2c-0.4,0.6-0.9,1.2-1.2,2
			c-0.3,0.6-0.4,1.2-0.6,1.8c-0.4,1.3-0.6,2.1-1.5,2.6c-0.2,0.1-0.5,0.2-0.9,0.3c-0.8,0.2-2,0.4-2.4,1.9l0,1.1l0,0.2
			c0.7,3.9,2,7.9,7.2,8.1c1.4,2.1,3.2,3.6,4.8,4.6c0,1.4-0.1,2.7-0.2,4.1l-0.1,1.1h7.4l0.2-0.1c1.4-0.5,1.9-1.7,2.3-2.7
			c0.1-0.1,0.1-0.2,0.2-0.4c0.8,0.1,1.7,0.1,2.8,0.1c1.4,0,2.8-0.1,4-0.2c0.2,0,0.3,0,0.5,0c0,0.2-0.1,0.5-0.1,0.7
			c-0.1,0.4-0.1,0.9-0.1,1.4l0,1.1h7.3l0.2-0.1c1.2-0.5,2.2-1.8,3.1-3c0.3-0.4,0.6-0.7,0.8-1c4.1-4.9,8-10.7,7.4-17.9
			c1.1-0.4,2.1-0.6,2.9-0.7c-0.2,0.6-0.3,1.3-0.3,2.2c0,1.1,0.6,2,1.6,2.4c0.4,0.2,0.8,0.2,1.3,0.2c0.9,0,1.7-0.3,2.3-0.9
			c0.4-0.4,1.1-1.5,0.2-3.3c-0.5-0.9-1.1-1.5-1.8-1.9c0.6-0.5,1.2-0.9,2.4-1c0.6-0.1,1-0.6,0.9-1.1C58.4,22.7,58,22.3,57.4,22.3z
			 M26.9,2.6c3.4,0,6.1,2.7,6.1,6.1c0,3.4-2.7,6.1-6.1,6.1c-3.4,0-6.1-2.7-6.1-6.1C20.8,5.3,23.6,2.6,26.9,2.6z M40.1,44
			c-0.3,0.3-0.6,0.7-0.9,1.1c-0.7,0.9-1.5,1.9-2.1,2.3h-4.7c0,0,0-0.1,0-0.1c0.1-0.6,0.2-1.3,0.1-2.1l-0.1-1l-1,0
			c-0.5,0-1,0.1-1.6,0.1c-1.2,0.1-2.6,0.1-3.9,0.1c-1.3,0-2.3-0.1-3.2-0.2l-0.7-0.1l-0.4,0.6c-0.2,0.4-0.4,0.8-0.6,1.2
			c-0.3,0.8-0.6,1.3-1,1.5h-4.7c0.1-1.2,0.2-2.4,0.1-3.8l0-0.5l-0.4-0.3c-1.6-1.1-3.6-2.6-4.9-4.8l-0.3-0.5l-0.8,0
			c-3.7,0-4.8-2.4-5.5-6.3v-0.6c0.1-0.1,0.2-0.2,0.8-0.3c0.4-0.1,0.9-0.2,1.4-0.5c1.6-0.9,2.1-2.5,2.4-3.8c0.1-0.5,0.3-1,0.5-1.5
			c0.3-0.6,0.6-1.1,1-1.6c0.3-0.4,0.6-0.8,0.9-1.3l0.5-0.9l-0.9-0.5c-1.9-1-3-2.1-3.5-3.6c1.8-0.9,4.1-1.4,6.9-1.4
			c0.4,0,0.9,0,1.3,0c0.2,0,0.5,0.1,0.8,0.1c0.5,0.1,1.1,0.2,1.7,0.1c0.7-0.1,1.5-0.3,2.2-0.6c0.5-0.2,1.1-0.4,1.6-0.5
			c0,0,0.1,0,0.1,0c0.4,0.4,0.9,0.8,1.5,1.2c-0.2,0.1-0.5,0.1-0.8,0.1c-0.3,0.1-1.1,0.2-1.4,0.3c-0.5,0.2-0.8,0.7-0.7,1.3
			c0.1,0.4,0.5,0.7,1,0.7c0.1,0,0.2,0,0.3,0c0.2-0.1,1-0.2,1.3-0.3c2.5-0.6,5.5-0.8,8.3-0.4c0.6,0.1,1.9,0.3,2.4,0.5
			c0.5,0.1,1.1-0.2,1.2-0.8c0.1-0.5-0.2-1.1-0.8-1.2c-0.5-0.1-1-0.3-2-0.4c0.5-0.4,1-0.8,1.4-1.2c6,1.2,10.3,4.2,13.1,9.1l0.5,1.5
			C48.6,32.4,44.6,38.5,40.1,44z M55.3,29.2c-0.2,0.3-0.9,0.3-1.3,0.2c-0.3-0.1-0.3-0.3-0.3-0.4c0-0.9,0.1-1.5,0.4-1.9
			c0.5,0.3,0.9,0.7,1.2,1.2C55.3,28.5,55.5,29,55.3,29.2z M13.1,22.9c-1.7,0-3.2,1.4-3.2,3.2c0,1.7,1.4,3.2,3.2,3.2s3.2-1.4,3.2-3.2
			C16.3,24.3,14.9,22.9,13.1,22.9z M13.1,27.2c-0.6,0-1.1-0.5-1.1-1.1c0-0.6,0.5-1.1,1.1-1.1c0.6,0,1.1,0.5,1.1,1.1
			C14.2,26.7,13.7,27.2,13.1,27.2z M26.3,8.9c0.2,0,0.4,0,0.5,0.1c0.1,0.1,0.2,0.3,0.4,0.6l0.7,1.5h1.5l-0.8-1.5c0,0,0-0.1-0.1-0.1
			c-0.3-0.6-0.7-1-1.1-1.2c0.3-0.1,0.5-0.4,0.7-0.9c0.1-0.4,0.2-0.6,0.3-0.7c0.1-0.1,0.3-0.1,0.7-0.1l0-0.9c-0.3,0-0.4,0-0.6,0
			c-0.3,0-0.6,0.1-0.8,0.2c-0.2,0.1-0.4,0.5-0.6,1c-0.1,0.4-0.3,0.6-0.3,0.8C26.7,7.9,26.5,8,26.3,8V5.8h-1.4v5.3h1.4V8.9z"/>
	</g>
</g>
</svg>
